HIERARCHY
ROOT Hips
{
  OFFSET 0 0 0
  CHANNELS 6 Xposition Yposition Zposition Zrotation Yrotation Xrotation
  JOINT LeftThigh
  {
    OFFSET 8.409438 0 -5.917753
    CHANNELS 3 Zrotation Yrotation Xrotation
    JOINT LeftLeg
    {
      OFFSET 0 0 -42.358652
      CHANNELS 3 Zrotation Yrotation Xrotation
      JOINT LeftFoot
      {
        OFFSET 0 0 -39.357303
        CHANNELS 3 Zrotation Yrotation Xrotation
      }
    }
  }
  JOINT RightThigh
  {
    OFFSET -8.409438 0 -5.917753
    CHANNELS 3 Zrotation Yrotation Xrotation
    JOINT RightLeg
    {
      OFFSET 0 0 -42.358652
      CHANNELS 3 Zrotation Yrotation Xrotation
      JOINT RightFoot
      {
        OFFSET 0 0 -39.357303
        CHANNELS 3 Zrotation Yrotation Xrotation
      }
    }
  }
  JOINT SpineLow
  {
    OFFSET 0 0 4.719101
    CHANNELS 3 Zrotation Yrotation Xrotation
    JOINT SpineMid
    {
      OFFSET 0 0 12.899191
      CHANNELS 3 Zrotation Yrotation Xrotation
      JOINT Chest
      {
        OFFSET 0 0 12.899191
        CHANNELS 3 Zrotation Yrotation Xrotation
        JOINT LeftShoulder
        {
          OFFSET 7.550562 1.41573 9.438202
          CHANNELS 3 Zrotation Yrotation Xrotation
          JOINT LeftArm
          {
            OFFSET 9.155056 0 4.247191
            CHANNELS 3 Zrotation Yrotation Xrotation
            JOINT LeftForearm
            {
              OFFSET 0 0 25.771955
              CHANNELS 3 Zrotation Yrotation Xrotation
              JOINT LeftHand
              {
                OFFSET 0 0 25.197169
                CHANNELS 3 Zrotation Yrotation Xrotation
              }
            }
          }
        }
        JOINT RightShoulder
        {
          OFFSET -7.550562 1.41573 9.438202
          CHANNELS 3 Zrotation Yrotation Xrotation
          JOINT RightArm
          {
            OFFSET -9.155056 0 4.247191
            CHANNELS 3 Zrotation Yrotation Xrotation
            JOINT RightForearm
            {
              OFFSET 0 0 -25.771955
              CHANNELS 3 Zrotation Yrotation Xrotation
              JOINT RightHand
              {
                OFFSET 0 0 -25.197169
                CHANNELS 3 Zrotation Yrotation Xrotation
              }
            }
          }
        }
        JOINT Neck
        {
          OFFSET 0 0 15.101124
          CHANNELS 3 Zrotation Yrotation Xrotation
          JOINT Head
          {
            OFFSET 0 0 11.325843
            CHANNELS 3 Zrotation Yrotation Xrotation
            End Site
            {
              OFFSET 0 0 14.157303
            }
          }
        }
      }
    }
  }
}
MOTION
Frames: 7
Frame Time: 0.0
0.0  89.887642  0.0  -1.705462  29.012202  -93.811556  12.469036  -47.00153  -4.050684  -12.149965  53.309661  34.760333  8.184016  0.406433  -0.777638  -33.772595  0.499522  -41.206971  10.770226  12.285321  63.919049  -1.79706  0.28022  1.448118  -2.660639  -0.012657  1.10687  -7.271423  0.087107  3.022702  -7.271422  0.087107  3.022702  -11.104696  17.191747  1.926977  135.48087  41.716186  -146.368808  -29.219054  -10.999051  58.839678  72.987135  11.714708  22.910765  0.504424  -1.345774  16.198396  24.714485  56.781078  -14.057215  -19.194753  -9.637853  -79.54035  73.431369  1.323654  -25.924361  -18.176987  -2.327017  2.553845  -13.621433  -1.823195  1.847782  
0.0  89.887642  0.0  -1.722754  28.649689  -93.814814  12.759701  -47.088017  -4.054149  -12.283044  53.369086  34.662152  8.164739  0.518534  -0.685703  -33.642768  0.123799  -41.397913  11.254608  12.159897  64.254196  -1.920975  0.366585  1.407554  -2.597766  -0.007876  1.090123  -7.099434  0.095484  2.97664  -7.099434  0.095484  2.97664  -11.582075  17.190498  1.925758  135.902902  41.58547  -146.484453  -29.099953  -11.10494  59.242627  72.688166  11.721319  22.769698  0.169176  -1.336643  16.136558  25.057019  56.941936  -13.675986  -19.275425  -9.450482  -79.484516  73.666316  1.542408  -26.170901  -18.352763  -2.38028  2.602604  -13.752763  -1.865426  1.882136  
0.0  89.887642  0.0  -1.686894  28.291268  -93.744558  12.995929  -47.042036  -4.098582  -12.559743  53.351796  34.441662  8.17177  0.664941  -0.560847  -33.600587  -0.30239  -41.703502  11.869077  12.07428  64.643046  -2.031206  0.435193  1.353367  -2.627208  0.037821  1.037707  -7.178088  0.215835  2.828527  -7.178088  0.215835  2.828527  -11.549171  17.058358  2.146482  136.427486  41.386968  -146.419931  -29.061315  -11.292531  59.728069  72.445918  11.799903  22.618401  0.10004  -1.570707  16.250885  25.882925  57.228748  -13.056898  -19.355313  -9.248109  -79.40237  73.842539  1.759438  -26.451365  -18.129977  -2.436071  2.790459  -13.584656  -1.9119  2.022301  
0.0  89.887642  0.0  -1.660207  27.750212  -93.602927  13.364547  -47.026069  -4.139105  -12.533237  53.29928  34.46372  7.95333  0.757257  -0.494904  -33.180093  -0.691759  -42.103603  12.316078  12.026253  65.0945  -2.070301  0.48224  1.306747  -2.531155  0.062183  1.016638  -6.914676  0.276027  2.768892  -6.914676  0.276027  2.768892  -12.162517  16.98011  2.173574  137.052366  41.378979  -146.429476  -29.170026  -11.226747  60.621623  72.299845  12.030589  22.510835  -0.325608  -1.676487  16.131787  26.589313  57.42542  -12.461578  -19.50621  -9.07121  -79.215796  73.91119  1.970212  -26.648932  -18.304397  -2.599627  2.81627  -13.714319  -2.036311  2.036061  
0.0  89.887642  0.0  -1.55393  27.075102  -93.341627  13.692567  -46.842725  -4.15387  -12.801011  53.178188  34.111736  7.81491  0.923252  -0.368789  -32.703403  -1.124265  -42.720425  12.891545  11.934182  65.692783  -2.003596  0.50645  1.242053  -2.444019  0.106925  0.991102  -6.674881  0.391943  2.695129  -6.674881  0.391943  2.695129  -12.763988  16.854579  2.133812  137.824805  41.442151  -146.419405  -29.58714  -11.111831  61.83864  72.260083  12.330742  22.405939  -0.696274  -1.874296  15.937801  28.278162  57.632547  -11.245534  -19.934617  -8.849291  -78.871957  73.883346  2.127768  -26.773519  -18.333464  -2.806019  2.805457  -13.73482  -2.191086  2.021554  
0.0  89.887642  0.0  -1.403517  26.145745  -92.971309  14.247936  -46.554711  -4.120128  -12.943079  52.963391  33.828352  7.634644  1.048127  -0.287095  -32.011637  -1.708899  -43.406249  13.595089  11.882431  66.328223  -1.820876  0.487291  1.120028  -2.309059  0.162796  0.947018  -6.304218  0.534792  2.570385  -6.304218  0.534792  2.570385  -13.536635  16.751344  2.101426  138.765739  41.60579  -146.350792  -30.218222  -10.778186  63.428907  72.263546  12.639007  22.095704  -1.181122  -2.067401  15.731955  29.921292  57.793806  -9.966735  -20.062995  -8.83632  -78.559097  73.723381  2.187192  -26.83135  -18.427618  -3.061992  2.802873  -13.803732  -2.383652  2.011374  
0.0  89.887642  0.0  -1.232504  25.013182  -92.592846  14.77382  -46.20469  -3.951494  -13.218043  52.744677  33.334271  7.376348  1.09937  -0.249838  -31.227703  -2.44356  -44.060161  14.394495  11.868187  66.949273  -1.474549  0.484135  0.968125  -2.146717  0.24852  0.915879  -5.857691  0.759823  2.479249  -5.857691  0.759823  2.47925  -14.541902  16.476542  1.873568  140.000148  41.799743  -146.263633  -31.19216  -10.001343  65.466739  72.538081  12.933235  21.749302  -1.799792  -2.43545  15.335293  32.658091  57.878306  -7.833388  -20.27747  -8.91591  -78.151784  73.216305  2.112942  -28.441577  -18.507216  -3.430544  2.787093  -13.860964  -2.660275  1.987809  
